<svg id="visual" viewBox="0 0 1920 1080" width="1920" height="1080" xmlns="http://www.w3.org/2000/svg" xmlns:xlink="http://www.w3.org/1999/xlink" version="1.1"><rect x="0" y="0" width="1920" height="1080" fill="#001122"></rect><defs><linearGradient id="grad1_0" x1="43.8%" y1="0%" x2="100%" y2="100%"><stop offset="14.444444444444446%" stop-color="#888277" stop-opacity="1"></stop><stop offset="85.55555555555554%" stop-color="#888277" stop-opacity="1"></stop></linearGradient></defs><defs><linearGradient id="grad1_1" x1="43.8%" y1="0%" x2="100%" y2="100%"><stop offset="14.444444444444446%" stop-color="#888277" stop-opacity="1"></stop><stop offset="85.55555555555554%" stop-color="#554046" stop-opacity="1"></stop></linearGradient></defs><defs><linearGradient id="grad1_2" x1="43.8%" y1="0%" x2="100%" y2="100%"><stop offset="14.444444444444446%" stop-color="#001122" stop-opacity="1"></stop><stop offset="85.55555555555554%" stop-color="#554046" stop-opacity="1"></stop></linearGradient></defs><defs><linearGradient id="grad2_0" x1="0%" y1="0%" x2="56.3%" y2="100%"><stop offset="14.444444444444446%" stop-color="#888277" stop-opacity="1"></stop><stop offset="85.55555555555554%" stop-color="#888277" stop-opacity="1"></stop></linearGradient></defs><defs><linearGradient id="grad2_1" x1="0%" y1="0%" x2="56.3%" y2="100%"><stop offset="14.444444444444446%" stop-color="#554046" stop-opacity="1"></stop><stop offset="85.55555555555554%" stop-color="#888277" stop-opacity="1"></stop></linearGradient></defs><defs><linearGradient id="grad2_2" x1="0%" y1="0%" x2="56.3%" y2="100%"><stop offset="14.444444444444446%" stop-color="#554046" stop-opacity="1"></stop><stop offset="85.55555555555554%" stop-color="#001122" stop-opacity="1"></stop></linearGradient></defs><g transform="translate(1920, 0)"><path d="M0 972C-133.6 964.8 -267.2 957.5 -372 898C-476.7 838.5 -552.6 726.7 -630 630C-707.4 533.4 -786.3 451.9 -843.5 349.4C-900.7 246.9 -936.4 123.5 -972 0L0 0Z" fill="#302736"></path><path d="M0 648C-89.1 643.2 -178.1 638.4 -248 598.7C-317.8 559 -368.4 484.5 -420 420C-471.6 355.6 -524.2 301.2 -562.3 232.9C-600.5 164.6 -624.2 82.3 -648 0L0 0Z" fill="#71605a"></path><path d="M0 324C-44.5 321.6 -89.1 319.2 -124 299.3C-158.9 279.5 -184.2 242.2 -210 210C-235.8 177.8 -262.1 150.6 -281.2 116.5C-300.2 82.3 -312.1 41.2 -324 0L0 0Z" fill="#888277"></path></g><g transform="translate(0, 1080)"><path d="M0 -972C93.7 -877.4 187.4 -782.9 310.4 -749.3C433.3 -715.7 585.5 -743 687.3 -687.3C789.1 -631.6 840.5 -492.7 879.5 -364.3C918.6 -235.9 945.3 -118 972 0L0 0Z" fill="#302736"></path><path d="M0 -648C62.5 -585 124.9 -521.9 206.9 -499.5C288.9 -477.1 390.3 -495.4 458.2 -458.2C526.1 -421 560.3 -328.5 586.4 -242.9C612.4 -157.3 630.2 -78.6 648 0L0 0Z" fill="#71605a"></path><path d="M0 -324C31.2 -292.5 62.5 -261 103.5 -249.8C144.4 -238.6 195.2 -247.7 229.1 -229.1C263 -210.5 280.2 -164.2 293.2 -121.4C306.2 -78.6 315.1 -39.3 324 0L0 0Z" fill="#888277"></path></g></svg>